<svg width="1200" height="630" viewBox="0 0 1200 630" fill="none" xmlns="http://www.w3.org/2000/svg">
  <defs>
    <linearGradient id="canvas" x1="0" y1="0" x2="1200" y2="630" gradientUnits="userSpaceOnUse">
      <stop stop-color="#08090C"/>
      <stop offset="1" stop-color="#0B1210"/>
    </linearGradient>
    <radialGradient id="glow" cx="0" cy="0" r="1" gradientTransform="translate(980 120) rotate(130) scale(620)" gradientUnits="userSpaceOnUse">
      <stop stop-color="#10B981" stop-opacity="0.28"/>
      <stop offset="1" stop-color="#10B981" stop-opacity="0"/>
    </radialGradient>
    <linearGradient id="mark" x1="96" y1="96" x2="208" y2="208" gradientUnits="userSpaceOnUse">
      <stop stop-color="#34D399"/>
      <stop offset="1" stop-color="#0D9488"/>
    </linearGradient>
    <linearGradient id="accent" x1="96" y1="0" x2="760" y2="0" gradientUnits="userSpaceOnUse">
      <stop stop-color="#FFFFFF"/>
      <stop offset="1" stop-color="#6EE7B7"/>
    </linearGradient>
  </defs>
  <rect width="1200" height="630" fill="url(#canvas)"/>
  <rect width="1200" height="630" fill="url(#glow)"/>
  <rect x="0.5" y="0.5" width="1199" height="629" stroke="#FFFFFF" stroke-opacity="0.06"/>

  <!-- brand mark -->
  <rect x="96" y="96" width="112" height="112" rx="30" fill="url(#mark)"/>
  <path d="M124 178 L124 126 L152 148 L180 126 L180 178" stroke="#FFFFFF" stroke-width="7" stroke-linecap="round" stroke-linejoin="round" opacity="0.95"/>
  <circle cx="124" cy="178" r="9.5" fill="#FFFFFF"/>
  <circle cx="124" cy="126" r="8" fill="#FFFFFF"/>
  <circle cx="152" cy="148" r="7" fill="#FFFFFF"/>
  <circle cx="180" cy="126" r="8" fill="#FFFFFF"/>
  <circle cx="180" cy="178" r="9.5" fill="#FFFFFF" opacity="0.92"/>
  <text x="232" y="172" font-family="Outfit, Geist, system-ui, sans-serif" font-size="44" font-weight="700" fill="#FFFFFF">MLAI<tspan fill="#98A2B0"> CORP</tspan></text>

  <!-- headline -->
  <text x="96" y="338" font-family="Outfit, Geist, system-ui, sans-serif" font-size="78" font-weight="700" fill="#FFFFFF">Infrastructure for</text>
  <text x="96" y="430" font-family="Outfit, Geist, system-ui, sans-serif" font-size="78" font-weight="700" fill="url(#accent)">resilient intelligence.</text>

  <!-- subline -->
  <text x="96" y="512" font-family="Geist, system-ui, sans-serif" font-size="30" fill="#98A2B0">Private, traceable AI infrastructure · WDBX · Abbey · Aviva · Abi</text>

  <!-- chips -->
  <g font-family="JetBrains Mono, ui-monospace, monospace" font-size="17" letter-spacing="0.5" fill="#6EE7B7">
    <rect x="96" y="546" width="262" height="44" rx="22" fill="#10B981" fill-opacity="0.08" stroke="#10B981" stroke-opacity="0.25"/>
    <text x="122" y="574">TRACEABLE RETRIEVAL</text>
    <rect x="374" y="546" width="190" height="44" rx="22" fill="#10B981" fill-opacity="0.08" stroke="#10B981" stroke-opacity="0.25"/>
    <text x="400" y="574">AGENT SAFETY</text>
    <rect x="580" y="546" width="222" height="44" rx="22" fill="#10B981" fill-opacity="0.08" stroke="#10B981" stroke-opacity="0.25"/>
    <text x="606" y="574">PRIVATE RUNTIME</text>
  </g>
</svg>
